<?xml version="1.0" encoding="UTF-8"?>
<svg xmlns="http://www.w3.org/2000/svg" baseProfile="tiny" version="1.2" width="13" height="13" viewBox="0 0 576 512">
  <!-- Generator: Adobe Illustrator 28.6.0, SVG Export Plug-In . SVG Version: 1.2.0 Build 709)  -->
  <g>
    <g id="Layer_1">
      <path d="M393,255.8c0-47.3-22.9-91.7-61.4-119.2-11-7.8-26.1-5.4-34.1,5.6-3,4.4-4.6,9.2-4.6,14.2,0,7.6,3.6,15.2,10.2,19.9,25.7,18.3,40.9,48,40.9,79.3s-15.4,61.2-40.9,79.3c-11,7.8-13.6,23.1-5.6,34.1,7.8,11,23.1,13.6,34.1,5.6,38.5-27.5,61.4-72,61.4-119.2v.4Z" fill="#77878a"/>
      <path d="M484.5,255.8c0-67.4-28.7-131.8-79-176.8-10-9-25.5-8.2-34.5,1.8-4.2,4.6-6.2,10.6-6.2,16.3s2.8,13.4,8.2,18.1c39.9,35.9,62.8,87.1,62.8,140.6s-22.9,104.9-62.8,140.6c-10,9-10.8,24.3-1.8,34.5,9,10,24.3,10.8,34.5,1.8,50.2-45.1,79-109.5,79-176.8h-.2Z" fill="#77878a"/>
      <path d="M477.3,490.7c63.6-62.4,98.7-145.9,98.7-234.9s-35.1-172.5-98.7-234.9c-9.6-9.4-25.1-9.4-34.5.4-4.6,4.8-7,11-7,17.1s2.4,12.6,7.4,17.3c54.2,53.2,83.9,124.2,83.9,200.2s-29.9,146.9-83.9,200.2c-9.6,9.4-9.8,24.9-.4,34.5,9.4,9.6,24.9,9.8,34.5.4v-.4Z" fill="#77878a"/>
      <path id="Path_2398" d="M268,262L11.3,407l-2.5.8-2.1.4-1.7-.4-1.7-.4-1.3-.8-1.3-1.7-.4-2.1-.4-2.6V111.2l.4-2.5.4-2.1,1.3-1.7,1.3-.8,1.7-.4,1.7-.4,2.1.4,2.5.9,256.7,144.9,2.1,1.7,1.3,1.3.9,1.7v3.4l-.9,1.7-1.3,1.3-2.1,1.7h0Z" fill="#77878a" fill-rule="evenodd"/>
    </g>
  </g>
</svg>